<svg width="1920" height="426" viewBox="0 0 1920 426" fill="none" xmlns="http://www.w3.org/2000/svg">
<g opacity="0.7">
<path d="M-142 1C-142 1 -7.21692 87.0937 355.595 69.9971C718.408 52.9005 856.582 51.6793 1189.72 160.976C1522.87 270.272 1924.67 272.104 1924.67 272.104" stroke="#5300BF" stroke-miterlimit="10"/>
<path opacity="0.9524" d="M-142 13.3037C-142 13.3037 -2.13079 98.8723 357.045 81.5437C716.221 64.215 860.617 61.3636 1191.7 166.795C1522.78 272.226 1925.72 280.683 1931.21 279.23" stroke="#5300BF" stroke-miterlimit="10"/>
<path opacity="0.9048" d="M-142 25.6006C-142 25.6006 2.95539 110.65 358.503 93.0834C714.051 75.5167 864.66 71.041 1193.68 172.607C1522.71 274.173 1926.78 289.261 1937.75 286.355" stroke="#5300BF" stroke-miterlimit="10"/>
<path opacity="0.8571" d="M-142 37.8984C-142 37.8984 8.04149 122.423 359.952 104.63C711.863 86.8376 868.687 80.7316 1195.66 178.427C1522.63 276.122 1927.82 297.841 1944.29 293.481" stroke="#5300BF" stroke-miterlimit="10"/>
<path opacity="0.8095" d="M-142 50.2014C-142 50.2014 13.1277 134.201 361.411 116.176C709.693 98.1514 872.73 90.4152 1197.64 184.245C1522.55 278.075 1928.88 306.425 1950.83 300.606" stroke="#5300BF" stroke-miterlimit="10"/>
<path opacity="0.7619" d="M-142 62.499C-142 62.499 18.2138 145.973 362.86 127.717C707.506 109.46 876.765 100.093 1199.62 190.058C1522.47 280.023 1929.92 314.998 1957.37 307.726" stroke="#5300BF" stroke-miterlimit="10"/>
<path opacity="0.7143" d="M-142 74.7969C-142 74.7969 23.3 157.752 364.318 139.257C705.336 120.762 880.809 109.772 1201.59 195.865C1522.38 281.959 1930.97 323.565 1963.91 314.846" stroke="#5300BF" stroke-miterlimit="10"/>
<path opacity="0.6667" d="M-142 87.0938C-142 87.0938 28.3862 169.524 365.768 150.797C703.149 132.07 884.835 119.455 1203.57 201.678C1522.3 283.9 1932.01 332.143 1970.45 321.965" stroke="#5300BF" stroke-miterlimit="10"/>
<path opacity="0.619" d="M-142 99.3975C-142 99.3975 33.4723 181.303 367.217 162.35C700.962 143.397 888.87 129.146 1205.54 207.503C1522.22 285.861 1933.07 340.729 1976.98 329.097" stroke="#5300BF" stroke-miterlimit="10"/>
<path opacity="0.5714" d="M-142 111.695C-142 111.695 38.5585 193.081 368.675 173.89C698.792 154.699 892.914 138.824 1207.53 213.316C1522.14 287.808 1934.12 349.301 1983.53 336.222" stroke="#5300BF" stroke-miterlimit="10"/>
<path opacity="0.5238" d="M-142 123.992C-142 123.992 43.6446 204.853 370.125 185.43C696.605 166.007 896.949 148.501 1209.5 219.129C1522.05 289.756 1935.17 357.88 1990.06 343.342" stroke="#5300BF" stroke-miterlimit="10"/>
<path opacity="0.4762" d="M-142 136.296C-142 136.296 48.7308 216.632 371.583 196.977C694.435 177.322 900.984 158.192 1211.48 224.948C1521.99 291.704 1936.22 366.459 1996.61 350.468" stroke="#5300BF" stroke-miterlimit="10"/>
<path opacity="0.4286" d="M-142 148.593C-142 148.593 53.8169 228.404 373.032 208.517C692.248 188.63 905.019 167.87 1213.46 230.761C1521.9 293.652 1937.27 375.038 2003.14 357.587" stroke="#5300BF" stroke-miterlimit="10"/>
<path opacity="0.381" d="M-142 160.89C-142 160.89 58.9031 240.182 374.49 220.057C690.078 199.932 909.062 177.547 1215.44 236.573C1521.83 295.599 1938.32 383.61 2009.69 364.713" stroke="#5300BF" stroke-miterlimit="10"/>
<path opacity="0.3333" d="M-142 173.188C-142 173.188 63.9892 251.954 375.94 231.603C687.891 211.252 913.097 187.231 1217.42 242.392C1521.74 297.553 1939.37 392.189 2016.22 371.838" stroke="#5300BF" stroke-miterlimit="10"/>
<path opacity="0.2857" d="M-142 185.491C-142 185.491 69.0754 263.732 377.39 243.149C685.704 222.566 917.124 196.921 1219.39 248.211C1521.66 299.501 1940.42 400.774 2022.76 378.963" stroke="#5300BF" stroke-miterlimit="10"/>
<path opacity="0.2381" d="M-142 197.788C-142 197.788 74.1615 275.511 378.848 254.689C683.534 233.868 921.167 206.599 1221.37 254.018C1521.57 301.436 1941.47 409.341 2029.3 386.083" stroke="#5300BF" stroke-miterlimit="10"/>
<path opacity="0.1905" d="M-142 210.085C-142 210.085 79.2476 287.283 380.297 266.23C681.347 245.176 925.202 216.277 1223.34 259.831C1521.49 303.384 1942.51 417.913 2035.84 393.203" stroke="#5300BF" stroke-miterlimit="10"/>
<path opacity="0.1429" d="M-142 222.389C-142 222.389 84.3338 299.061 381.755 277.776C679.176 256.491 929.246 225.961 1225.33 265.65C1521.41 305.338 1943.57 426.498 2042.38 400.328" stroke="#5300BF" stroke-miterlimit="10"/>
<path opacity="0.0952" d="M-142 234.686C-142 234.686 89.42 310.833 383.205 289.322C676.989 267.811 933.272 235.651 1227.3 271.468C1521.33 307.286 1944.61 435.077 2048.92 407.454" stroke="#5300BF" stroke-miterlimit="10"/>
<path opacity="0.0476" d="M-142 246.984C-142 246.984 94.5061 322.612 384.663 300.863C674.819 279.113 937.316 245.329 1229.29 277.282C1521.26 309.234 1945.67 443.656 2055.46 414.58" stroke="#5300BF" stroke-miterlimit="10"/>
</g>
</svg>
